<svg fill="none" height="28" viewBox="0 0 50 28" width="50" xmlns="http://www.w3.org/2000/svg" xmlns:xlink="http://www.w3.org/1999/xlink"><linearGradient id="a" gradientUnits="userSpaceOnUse" x1="0" x2="48.1155" y1="0" y2="30.9314"><stop offset="0" stop-color="#5dc1f4"/><stop offset="1" stop-color="#4685e8"/></linearGradient><rect fill="url(#a)" height="28" rx="8" width="50"/><path clip-rule="evenodd" d="m30 9.00008c-.5083 0-.975-.29167-1.2083-.74167l-.6-1.20833c-.3834-.75833-1.3834-1.38333-2.2334-1.38333h-1.9083c-.8583 0-1.8583.625-2.2417 1.38333l-.6 1.20833c-.2333.45-.7.74167-1.2083.74167-1.8083 0-3.2417 1.52502-3.125 3.32502l.4333 6.8833c.1 1.7167 1.025 3.125 3.325 3.125h8.7334c2.3 0 3.2166-1.4083 3.325-3.125l.4333-6.8833c.1167-1.8-1.3167-3.32502-3.125-3.32502zm-6.25 1.04162h2.5c.3417 0 .625.2834.625.625 0 .3417-.2833.625-.625.625h-2.5c-.3417 0-.625-.2833-.625-.625 0-.3416.2833-.625.625-.625zm-1.5667 6.2417c0 1.5583 1.2667 2.8167 2.8167 2.8167s2.8167-1.2584 2.8167-2.8167-1.2584-2.8167-2.8167-2.8167-2.8167 1.2584-2.8167 2.8167z" fill="#fff" fill-rule="evenodd"/></svg>