<svg fill="none" height="28" viewBox="0 0 50 28" width="50" xmlns="http://www.w3.org/2000/svg" xmlns:xlink="http://www.w3.org/1999/xlink"><linearGradient id="a" gradientUnits="userSpaceOnUse" x1="0" x2="48.1155" y1="0" y2="30.9314"><stop offset="0" stop-color="#fbda2d"/><stop offset="1" stop-color="#fbab03"/></linearGradient><rect fill="url(#a)" height="28" rx="8" width="50"/><path clip-rule="evenodd" d="m19.1167 8.13345c3.2583-3.25834 8.55-3.25834 11.8083 0 3.3167 3.31665 3.2583 8.72495-.175 11.97495-3.1667 2.9917-8.3 2.9917-11.4667 0-3.425-3.25-3.4833-8.6583-.1666-11.97495zm5.9 11.16665c1.3166 0 2.6333-.475 3.6333-1.425.25-.2417.2667-.6333.025-.8833-.2333-.25-.6333-.2584-.8833-.025-1.5334 1.45-4.025 1.4416-5.55 0-.25-.2334-.6417-.225-.8834.025-.2333.25-.225.6416.025.8833 1 .95 2.3167 1.425 3.6334 1.425z" fill="#fff" fill-rule="evenodd"/></svg>