<svg fill="none" height="28" viewBox="0 0 50 28" width="50" xmlns="http://www.w3.org/2000/svg" xmlns:xlink="http://www.w3.org/1999/xlink"><linearGradient id="a" gradientUnits="userSpaceOnUse" x1="34" x2="17.7661" y1="28" y2="-.989037"><stop offset="0" stop-color="#02be97"/><stop offset="1" stop-color="#72efd9"/></linearGradient><rect fill="url(#a)" height="28" rx="8" width="50"/><g fill="#fff"><path d="m17.15 19.8416-.0167.0167c-.225-.4916-.3667-1.05-.425-1.6666.0583.6083.2167 1.1583.4417 1.6499z"/><path d="m24.4833 10.6667c0 1.0953-.8879 1.9833-1.9833 1.9833s-1.9833-.888-1.9833-1.9833c0-1.09538.8879-1.98335 1.9833-1.98335s1.9833.88797 1.9833 1.98335z"/><path clip-rule="evenodd" d="m21.5083 5.66675h6.9834c3.0333 0 4.8416 1.80833 4.8416 4.84165v5.075 1.9083c0 3.0334-1.8083 4.8417-4.8416 4.8417h-6.9834c-2.125 0-3.6583-.8917-4.375-2.475-.3083-.6667-.4666-1.4583-.4666-2.3667v-6.9833c0-3.03332 1.8083-4.84165 4.8416-4.84165zm8.1167 8.74995c.65-.5583 1.7-.5583 2.35 0l.1083.0917v-4c0-2.34999-1.2416-3.59165-3.5916-3.59165h-6.9834c-2.35 0-3.5916 1.24166-3.5916 3.59165v6.9833c0 .6334.1083 1.175.2916 1.6417l3.1167-2.0917c.6667-.45 1.6083-.4 2.2.1167l.2833.2333c.65.5584 1.7.5584 2.35 0z" fill-rule="evenodd"/></g></svg>