<svg fill="none" height="28" viewBox="0 0 50 28" width="50" xmlns="http://www.w3.org/2000/svg" xmlns:xlink="http://www.w3.org/1999/xlink"><linearGradient id="a" gradientUnits="userSpaceOnUse" x1="0" x2="48.1155" y1="0" y2="30.9314"><stop offset="0" stop-color="#fda759"/><stop offset="1" stop-color="#f9682e"/><stop offset="1" stop-color="#737373"/></linearGradient><rect fill="url(#a)" height="28" rx="8" width="50"/><g fill="#fff"><path clip-rule="evenodd" d="m21.5084 5.66675h6.9833c3.0333 0 4.8417 1.80833 4.8417 4.84165v6.9833c0 2.3417-1.075 3.95-2.9667 4.5584-.55.1916-1.1833.2833-1.875.2833h-6.9833c-.6917 0-1.325-.0917-1.875-.2833-1.8917-.6084-2.9667-2.2167-2.9667-4.5584v-6.9833c0-3.03332 1.8083-4.84165 4.8417-4.84165zm8.4666 15.19995c1.4084-.4666 2.1084-1.5916 2.1084-3.375v-6.9833c0-2.34999-1.2417-3.59165-3.5917-3.59165h-6.9833c-2.35 0-3.5917 1.24166-3.5917 3.59165v6.9917c0 1.7833.7083 2.9166 2.1 3.3666h.0083c.8167-1.6 2.725-2.725 4.975-2.725s4.1667 1.1334 4.975 2.725z" fill-rule="evenodd"/><path d="m25 10.6667c-1.65 0-2.9833 1.3334-2.9833 2.9834s1.3333 2.9916 2.9833 2.9916 2.9833-1.3416 2.9833-2.9916-1.3333-2.9834-2.9833-2.9834z"/></g></svg>