<?xml version="1.0" standalone="no"?><!DOCTYPE svg PUBLIC "-//W3C//DTD SVG 1.1//EN" "http://www.w3.org/Graphics/SVG/1.1/DTD/svg11.dtd"><svg t="1725977183225" class="icon" viewBox="0 0 1024 1024" version="1.1" xmlns="http://www.w3.org/2000/svg" p-id="2912" xmlns:xlink="http://www.w3.org/1999/xlink" width="1024" height="1024"><path d="M762.5728 160.2048l-82.944-98.2016-57.856 97.3824-158.208-27.4432 41.4208 144.0768-145.408 111.9744 213.504 30.464L563.2 545.5872l-1.1776 19.0464c0 5.0688 3.9936 8.4992 8.5504 8.4992a12.0832 12.0832 0 0 0 4.9664-1.1264l1.3312-0.6144 3.1744-1.6896 3.84-2.3552 7.68-5.12 6.2464-4.352 11.2128-8.1408 20.992-15.7184 14.7968-11.264 34.816-27.0848 34.304-27.0848 9.1136-7.2192 113.152 112.7936 13.0048-145.152 112.7424-18.9952-110.336-131.7376 71.8336-118.1184h-160.9216z" fill="#FFAD51" p-id="2913"></path><path d="M629.8624 177.0496l52.0192-87.552 73.2672 86.7328h139.8272l-62.976 103.5264 99.7376 119.0912-97.3312 16.384-11.0592 123.4944-99.0208-98.816-58.4704 46.2336-27.392 21.248-27.136 20.6848-11.776 8.704-10.8544 7.936-8.704 6.0416-1.1776 0.768 8.96-116.4288 2.4064-30.3616-190.72-27.2896 123.904-95.3856-37.376-129.9456 143.872 24.9344z" fill="#FFD217" p-id="2914"></path><path d="M857.344 176.2304l-62.976 103.5264 99.7376 119.0912-97.3824 16.384-7.936 88.9856-64.512-64.256-20.992 16.5888-16.64-16.5888-58.4704 46.1824-27.392 21.248-19.7632 15.104 6.7584-87.3984 2.4064-30.3616-190.72-27.2896 123.904-95.3856-35.4304-123.136 104.2944 18.1248 3.5328-5.9392 34.0992 5.9392 36.4544-61.3888 51.2 60.5696h139.776z" fill="#FFE20D" p-id="2915"></path><path d="M397.6704 285.8496c185.3952 0 335.7184 151.3472 335.7184 338.0736s-150.3232 338.0736-335.7184 338.0736c-185.344 0-335.6672-151.3472-335.6672-338.0736s150.272-338.0736 335.6672-338.0736z" fill="#3D2D2D" p-id="2916"></path><path d="M397.6704 301.8752c-176.5376 0-319.6928 144.1792-319.6928 322.048s143.1552 322.048 319.6928 322.048c176.5888 0 319.6928-144.1792 319.6928-322.048s-143.104-322.048-319.6928-322.048z" fill="#131313" p-id="2917"></path><path d="M397.6704 301.8752c167.0656 0 304.2816 129.1264 318.464 293.7344-14.1824 164.6592-151.3984 293.7856-318.464 293.7856s-304.2304-129.1264-318.464-293.7344c14.2336-164.6592 151.3984-293.7856 318.464-293.7856z" fill="#292929" p-id="2918"></path><path d="M547.4816 281.2416l-2.816 1.024-1.7408 0.7168-1.6384 0.8704-1.6896 1.0752-1.792 1.3824-1.8944 1.7408-2.2016 2.1504-3.8912 4.3008-4.9152 5.632-19.8144 23.8592-5.5296 6.5024a226.5088 226.5088 0 0 1-12.4416 12.9536l-3.072 2.7648a42.8032 42.8032 0 0 1-10.8032 6.8608l-4.608 2.048-9.5232 3.9936c-12.1856 4.9152-18.2784 9.9328-21.248 20.5824-7.5264 27.136 22.5792 73.8816 71.1168 105.472 56.32 36.6592 98.4576 47.7696 120.6272 26.112 4.096-4.0448 6.2464-8.7552 8.3968-17.2032l3.7888-16.128 1.1776-4.5056 1.1264-3.6352 0.512-1.6384 1.2288-3.072 1.3824-3.072 1.6896-3.328c1.024-2.048 2.2016-4.1472 3.4304-6.4l4.096-7.0144 6.8608-11.0592 9.3184-14.848 5.376-8.8576 2.9696-4.9664 3.3792-6.2976 1.6896-3.584 1.3312-3.072a21.9648 21.9648 0 0 0 1.3312-11.264l-0.4608-2.4064a51.0464 51.0464 0 0 0-0.3072-1.2288c-7.7824-29.0304-24.9344-55.04-49.5616-71.424-29.3888-19.5584-69.5296-32.0512-90.88-25.0368z" fill="#CF411C" p-id="2919"></path><path d="M629.504 319.6416c21.1968 14.08 36.1472 36.7104 42.9568 62.208a6.3488 6.3488 0 0 1 0.1024 2.7136l-0.4096 1.7408-0.7168 2.1504-0.512 1.1776-1.28 2.7648-1.6896 3.2768-3.3792 5.9904-6.2976 10.3936-12.288 19.6608-3.2768 5.3248a250.8288 250.8288 0 0 0-8.0384 14.336c-3.2256 6.144-5.632 12.544-7.5776 19.5584l-1.536 5.632-2.3552 10.5472c-1.792 7.68-3.072 11.0592-4.7616 12.6976-14.4896 14.1312-50.3808 4.6592-100.7616-28.16-43.3152-28.16-69.632-68.9664-64.4096-87.6544 1.1776-4.2496 3.2768-6.3488 9.3184-9.0112l9.3184-3.7888c2.7136-1.024 5.376-2.2528 8.0384-3.584a76.288 76.288 0 0 0 18.0224-12.3904c1.8432-1.6896 3.7376-3.584 5.6832-5.632l2.56-2.6112 5.2736-5.8368 5.7856-6.8096 18.0736-21.7088 5.5296-6.3488 2.816-3.1232 2.304-2.3552a24.6272 24.6272 0 0 1 3.584-2.9696l1.4848-0.8192 1.4336-0.512c15.4624-5.12 51.3024 6.0416 77.0048 23.1424z" fill="#FC5965" p-id="2920"></path><path d="M638.4128 311.1936c38.2464 30.1056 58.2656 68.7104 44.6464 86.272-13.568 17.4592-55.6032 7.3216-93.8496-22.8352-38.2464-30.1056-58.2656-68.7104-44.6976-86.2208 13.6192-17.5104 55.6544-7.3216 93.9008 22.784z" fill="#CF411C" p-id="2921"></path><path d="M628.5312 323.84c-32.1024-25.2928-65.3824-33.3824-71.3728-25.6-6.144 7.8848 9.7792 38.5024 41.9328 63.7952 32.1024 25.2416 65.3312 33.3312 71.3216 25.6 5.9392-7.5776-8.6528-36.352-38.5024-61.0816l-3.3792-2.7136z" fill="#FC5965" p-id="2922"></path><path d="M707.7376 274.7392a14.336 14.336 0 1 1 0 28.672c-23.4496 0-41.984 8.7552-57.8048 24.1152a123.7504 123.7504 0 0 0-10.6496 11.8784l-4.096 5.3248-3.3792 4.6592a14.336 14.336 0 0 1-23.04-17.0496l4.2496-5.7856 3.7888-4.9664c4.096-5.2224 8.3968-10.0352 13.1072-14.592 20.7872-20.2752 46.2848-32.256 77.824-32.256z" fill="#979797" p-id="2923"></path></svg>