<svg fill="none" height="28" viewBox="0 0 50 28" width="50" xmlns="http://www.w3.org/2000/svg" xmlns:xlink="http://www.w3.org/1999/xlink"><linearGradient id="a" gradientUnits="userSpaceOnUse" x1="0" x2="48.1155" y1="0" y2="30.9314"><stop offset="0" stop-color="#5dc3f5"/><stop offset="1" stop-color="#4d86df"/></linearGradient><clipPath id="b"><path d="m16.6667 5.66675h16.6667v16.6667h-16.6667z"/></clipPath><rect fill="url(#a)" height="28" rx="8" width="50"/><g clip-path="url(#b)" fill="#fff"><path d="m30.5755 5.66675h-11.2203c-1.7745 0-2.1677.49739-2.1677 2.37864v.93125c1.1755.61198 2.6583 1.39066 4.3125 1.91716.4609-1.45205 1.838-2.5057 3.4651-2.5057 1.625 0 3.0005 1.05104 3.4625 2.4995 1.6688-.5479 3.1302-1.37085 4.3151-2.01981v-.82292c.0005-1.88073-.3932-2.37812-2.1672-2.37812z"/><path d="m24.9651 15.5307c-1.9286 0-3.5016-1.4812-3.6182-3.35-1.4979-.4745-2.9136-1.1359-4.1594-1.7161v9.838c0 1.8807.3932 2.0307 2.1677 2.0307h11.2198c1.7745 0 2.1677-.15 2.1677-2.0312v-9.9308c-1.2651.6172-2.663 1.3089-4.1594 1.7995-.1109 1.8735-1.6859 3.3599-3.6182 3.3599z"/><path d="m25.8797 9.5557-.736 1.638c-.0609.138-.1057.2438-.1343.3167h-.0131l-.8895-1.95522h-1.086l1.2167 2.18122h-.9224v.6214h1.125v.5364h-1.125v.6214h1.125v.901h1.0307v-.9005h1.0891v-.6213h-1.0891v-.5365h1.0891v-.6214h-.9031l1.2526-2.1812z"/></g></svg>