<svg fill="none" height="28" viewBox="0 0 50 28" width="50" xmlns="http://www.w3.org/2000/svg" xmlns:xlink="http://www.w3.org/1999/xlink"><linearGradient id="a" gradientUnits="userSpaceOnUse" x1="50" x2="1.88448" y1="28" y2="-2.93141"><stop offset="0" stop-color="#00b891"/><stop offset="1" stop-color="#00e9bf"/></linearGradient><rect fill="url(#a)" height="28" rx="8" width="50"/><g fill="#fff"><path d="m30.9333 11.6001c-.325 0-.5833.2584-.5833.5834v1.3166c0 2.95-2.4 5.35-5.35 5.35s-5.35-2.4-5.35-5.35v-1.325c0-.325-.2583-.5833-.5833-.5833s-.5834.2583-.5834.5833v1.3167c0 3.3917 2.6084 6.1833 5.9334 6.4833v1.775c0 .325.2583.5834.5833.5834s.5833-.2584.5833-.5834v-1.775c3.3167-.2916 5.9334-3.0916 5.9334-6.4833v-1.3167c-.0084-.3166-.2667-.575-.5834-.575z"/><path clip-rule="evenodd" d="m25 5.66675c-2.0333 0-3.6833 1.65-3.6833 3.68333v4.26662c0 2.0334 1.65 3.6834 3.6833 3.6834s3.6833-1.65 3.6833-3.6834v-4.26662c0-2.03333-1.65-3.68333-3.6833-3.68333zm1.0917 5.79165c-.0584.2167-.25.3583-.4667.3583-.0417 0-.0833-.0083-.125-.0166-.325-.0917-.6667-.0917-.9917 0-.2666.075-.525-.0834-.5916-.3417-.075-.2583.0833-.525.3416-.5917.4917-.1333 1.0084-.1333 1.5 0 .25.0667.4.3334.3334.5917zm-.0167-1.3c.2 0 .3833-.1167.4583-.31665.0917-.25-.0416-.525-.2916-.61667-.8-.29167-1.6834-.29167-2.4834 0-.25.08333-.3833.36667-.2916.61667.0916.24995.375.38335.625.29165.5833-.21665 1.2333-.21665 1.8166 0 .0584.0167.1084.025.1667.025z" fill-rule="evenodd"/></g></svg>